<?xml version="1.0" encoding="iso-8859-1"?>
<!-- Generator: Adobe Illustrator 19.0.0, SVG Export Plug-In . SVG Version: 6.00 Build 0)  -->
<svg version="1.1" id="Capa_1" xmlns="http://www.w3.org/2000/svg" xmlns:xlink="http://www.w3.org/1999/xlink" x="0px" y="0px"
	 viewBox="0 0 510.758 510.758" style="enable-background:new 0 0 510.758 510.758;" xml:space="preserve">
<g>
	<g>
		<path d="M504.672,218.312L270.005,4.979c-8.533-6.4-21.333-6.4-27.733,0L7.605,218.312c-14.933,12.8-6.4,36.267,12.8,36.267
			h42.667v234.667c0,12.8,8.533,21.333,21.333,21.333h85.333v-102.4c0-44.8,32-83.2,76.8-89.6
			c49.067-4.267,93.867,34.133,93.867,85.333v106.667h85.333c12.8,0,21.333-8.533,21.333-21.333V254.579h42.667
			C508.938,254.579,517.472,231.112,504.672,218.312z M297.738,105.246c12.8,0,21.333,8.533,21.333,21.333
			s-8.533,21.333-21.333,21.333c-12.8,0-21.333-8.533-21.333-21.333S284.938,105.246,297.738,105.246z M212.405,105.246
			c12.8,0,21.333,8.533,21.333,21.333s-8.533,21.333-21.333,21.333c-12.8,0-21.333-8.533-21.333-21.333
			S199.605,105.246,212.405,105.246z M169.738,190.579c-12.8,0-21.333-8.533-21.333-21.333c0-12.8,8.533-21.333,21.333-21.333
			s21.333,8.533,21.333,21.333S182.538,190.579,169.738,190.579z M255.072,275.912c-36.267,0-64-27.733-64-64s27.733-64,64-64
			s64,27.733,64,64S291.338,275.912,255.072,275.912z M340.405,190.579c-12.8,0-21.333-8.533-21.333-21.333
			c0-12.8,8.533-21.333,21.333-21.333c12.8,0,21.333,8.533,21.333,21.333S353.205,190.579,340.405,190.579z"/>
	</g>
</g>
<g>
</g>
<g>
</g>
<g>
</g>
<g>
</g>
<g>
</g>
<g>
</g>
<g>
</g>
<g>
</g>
<g>
</g>
<g>
</g>
<g>
</g>
<g>
</g>
<g>
</g>
<g>
</g>
<g>
</g>
</svg>
