<svg height="512pt" viewBox="0 0 512 512" width="512pt" xmlns="http://www.w3.org/2000/svg"><path d="m75.9375 330.347656-75.9375 73.652344h84.851562l33.644532-31.367188c-15.839844-12.363281-30.503906-26.171874-42.558594-42.285156zm0 0"/><path d="m107.199219 426.355469v85.644531l96.582031-97.363281c-21.515625-5.144531-41.410156-14.019531-60.023438-24.84375zm0 0"/><path d="m435.988281 330.445312c-12.066406 16.113282-26.742187 29.914063-42.589843 42.273438l33.742187 32.28125h84.859375zm0 0"/><path d="m308.078125 414.671875 95.921875 97.328125v-84.84375l-35.875-37.292969c-18.621094 10.816407-38.523438 19.679688-60.046875 24.808594zm0 0"/><path d="m256 226c-24.230469 0-45 26.394531-45 48.003906 0 24.359375 31.464844 26.996094 45 26.996094s45-2.636719 45-26.996094c0-21.609375-20.773438-48.003906-45-48.003906zm0 0"/><path d="m256 121c8.277344 0 15-6.722656 15-15s-6.722656-15-15-15-15 6.722656-15 15 6.722656 15 15 15zm0 0"/><path d="m166 151c-8.277344 0-15 6.722656-15 15s6.722656 15 15 15 15-6.722656 15-15-6.722656-15-15-15zm0 0"/><path d="m346 151c-8.277344 0-15 6.722656-15 15s6.722656 15 15 15 15-6.722656 15-15-6.722656-15-15-15zm0 0"/><path d="m451 196c0-107.519531-87.480469-196-195-196s-195 88.480469-195 196 87.480469 195 195 195 195-87.480469 195-195zm-195-135c24.8125 0 45 20.1875 45 45s-20.1875 45-45 45-45-20.1875-45-45 20.183594-45 45-45zm-135 105c0-24.8125 20.1875-45 45-45s45 20.1875 45 45-20.1875 45-45 45-45-20.1875-45-45zm135 165c-45.558594 0-75-22.367188-75-56.996094 0-36.078125 32.769531-78.003906 75-78.003906s75 41.925781 75 78.003906c0 34.628906-29.441406 56.996094-75 56.996094zm90-120c-24.8125 0-45-20.1875-45-45s20.1875-45 45-45 45 20.1875 45 45-20.1875 45-45 45zm0 0"/></svg>