<svg id="Capa_1" enable-background="new 0 0 512 512" height="512" viewBox="0 0 512 512" width="512" xmlns="http://www.w3.org/2000/svg"><g><path d="m481 256h16c8.284 0 15-6.716 15-15v-60c0-8.284-6.716-15-15-15h-106v-45c0-24.813-20.187-45-45-45h-180c-24.813 0-45 20.187-45 45v45h-106c-8.284 0-15 6.716-15 15v60c0 8.284 6.716 15 15 15h16v165c0 8.284 6.716 15 15 15h360c8.284 0 15-6.716 15-15v-16.596c19.073 19.483 45.646 31.596 75 31.596 13.319 0 20.047-16.166 10.606-25.607-16.512-16.512-25.606-38.467-25.606-61.819 0-11.771 0-79.165 0-92.574zm-330-135c0-8.271 6.729-15 15-15h180c8.271 0 15 6.729 15 15v45h-210zm-121 105v-30h452v30h-16c-8.284 0-15 6.716-15 15v15h-390v-15c0-8.284-6.716-15-15-15zm391 105c0-8.284-6.716-15-15-15s-15 6.716-15 15v75h-30v-75c0-8.284-6.716-15-15-15s-15 6.716-15 15v75h-30v-75c0-8.284-6.716-15-15-15s-15 6.716-15 15v75h-30v-75c0-8.284-6.716-15-15-15s-15 6.716-15 15v75h-30v-75c0-8.284-6.716-15-15-15s-15 6.716-15 15v75h-30v-75c0-8.284-6.716-15-15-15s-15 6.716-15 15v75h-30v-120h390v62.574c0 17.238 3.689 33.909 10.694 49.111-24.149-12.474-40.694-37.683-40.694-66.685z"/></g></svg>