<svg id="Capa_1" enable-background="new 0 0 512 512" height="512" viewBox="0 0 512 512" width="512" xmlns="http://www.w3.org/2000/svg"><path d="m121 312h110v110h-110z"/><path d="m396 30c0-16.569-13.431-30-30-30-13.043 0-24.03 8.375-28.163 20h-163.674c-4.133-11.625-15.12-20-28.163-20-16.569 0-30 13.431-30 30 0 7.719 2.997 14.684 7.786 20-4.789 5.316-7.786 12.281-7.786 20 0 16.569 13.431 30 30 30 13.043 0 24.03-8.375 28.163-20h163.674c4.133 11.625 15.12 20 28.163 20 16.569 0 30-13.431 30-30 0-7.719-2.997-14.684-7.786-20 4.789-5.316 7.786-12.281 7.786-20z"/><path d="m497 482h-16v-290h-450v290h-16c-8.284 0-15 6.716-15 15s6.716 15 15 15h482c8.284 0 15-6.716 15-15s-6.716-15-15-15zm-331-260h180c8.284 0 15 6.716 15 15s-6.716 15-15 15h-180c-8.284 0-15-6.716-15-15s6.716-15 15-15zm95 215c0 8.284-6.716 15-15 15h-140c-8.284 0-15-6.716-15-15v-140c0-8.284 6.716-15 15-15h140c8.284 0 15 6.716 15 15zm160 45h-30v-170h-70v170h-30v-185c0-8.284 6.716-15 15-15h100c8.284 0 15 6.716 15 15z"/><path d="m510.087 141.846-30-82c-2.164-5.913-7.79-9.846-14.087-9.846h-43.475c2.283 6.378 3.475 13.133 3.475 20 0 33.084-26.916 60-60 60-17.32 0-33.427-7.55-44.579-20h-130.842c-11.152 12.45-27.259 20-44.579 20-33.084 0-60-26.916-60-60 0-6.867 1.192-13.622 3.475-20h-43.475c-6.297 0-11.923 3.933-14.087 9.846l-30 82c-1.683 4.6-1.014 9.732 1.792 13.747 2.807 4.015 7.397 6.407 12.295 6.407h480c4.898 0 9.488-2.392 12.294-6.407 2.807-4.014 3.476-9.147 1.793-13.747z"/></svg>