<svg height="512" viewBox="0 0 192 192" width="512" xmlns="http://www.w3.org/2000/svg"><path d="m90.651 134.453c-3.915-4.453-7.932-9.141-11.951-13.978l-4.792 9.1a32.085 32.085 0 1 0 13.42 8.554c1.087-1.189 2.189-2.409 3.323-3.676zm-26.651 41.547a16 16 0 1 1 16-16 16.019 16.019 0 0 1 -16 16z"/><path d="m139.43 71.058c25.015-41.691 8.609-67.211 7.9-68.277a4 4 0 0 0 -6.868.356l-39.942 75.887 14.2 26.982a337.754 337.754 0 0 0 24.71-34.948z"/><path d="m177.344 163.563c-1.764 2.645-5.242 7.084-8.726 7.1h-.025c-3.217 0-6.906-3.365-8.958-5.831a31.99 31.99 0 0 0 -41.547-35.257l-66.548-126.438a4 4 0 0 0 -6.868-.356c-.711 1.066-17.117 26.586 7.9 68.277 14.093 23.489 36.014 49.345 52.1 67.076a31.982 31.982 0 1 0 47.989 42.242c3.991 3.27 9.432 6.291 15.937 6.291 8.345 0 15.769-4.788 22.063-14.229zm-81.344-47.563a5 5 0 1 1 5-5 5 5 0 0 1 -5 5zm32 60a16 16 0 1 1 16-16 16.019 16.019 0 0 1 -16 16z"/></svg>