<?xml version="1.0" encoding="iso-8859-1"?>
<!-- Generator: Adobe Illustrator 19.0.0, SVG Export Plug-In . SVG Version: 6.00 Build 0)  -->
<svg version="1.1" id="Capa_1" xmlns="http://www.w3.org/2000/svg" xmlns:xlink="http://www.w3.org/1999/xlink" x="0px" y="0px"
	 viewBox="0 0 512 512" style="enable-background:new 0 0 512 512;" xml:space="preserve">
<g>
	<g>
		<g>
			<circle cx="405.333" cy="256" r="64"/>
			<circle cx="320" cy="213.333" r="21.333"/>
			<circle cx="362.667" cy="170.667" r="21.333"/>
			<circle cx="448" cy="170.667" r="21.333"/>
			<circle cx="490.667" cy="213.333" r="21.333"/>
			<path d="M266.667,469.333C201.894,469.263,149.404,416.772,149.333,352v-74.667h-42.667V352c0,88.366,71.634,160,160,160
				s160-71.634,160-160H384C383.929,416.772,331.439,469.263,266.667,469.333z"/>
			<path d="M256,128V21.333C256,9.551,246.449,0,234.667,0h-64v42.667h42.667V128c0,47.128-38.205,85.333-85.333,85.333
				S42.667,175.128,42.667,128V42.667h42.667V0h-64C9.551,0,0,9.551,0,21.333V128c0,70.692,57.308,128,128,128S256,198.692,256,128z
				"/>
		</g>
	</g>
</g>
<g>
</g>
<g>
</g>
<g>
</g>
<g>
</g>
<g>
</g>
<g>
</g>
<g>
</g>
<g>
</g>
<g>
</g>
<g>
</g>
<g>
</g>
<g>
</g>
<g>
</g>
<g>
</g>
<g>
</g>
</svg>
